<?xml version="1.0" encoding="UTF-8"?>
<svg version="1.1" xmlns="http://www.w3.org/2000/svg" width="1080" height="1080">
<path d="M0 0 C0 291.06 0 582.12 0 882 C-14.26829268 889.68292683 -14.26829268 889.68292683 -20 892 C-21.0828125 892.5878125 -21.0828125 892.5878125 -22.1875 893.1875 C-24 894 -24 894 -28 894 C-28 894.66 -28 895.32 -28 896 C-30.88262366 897.50994572 -33.64450678 898.88688852 -36.75 899.875 C-40.46162376 901.15979284 -43.88875304 902.83740247 -47.375 904.625 C-48.0654541 904.97401367 -48.7559082 905.32302734 -49.46728516 905.68261719 C-52.36156924 907.14580584 -55.25105378 908.61835176 -58.140625 910.09082031 C-65.11680541 913.64027507 -72.02950785 917.11236699 -79.35546875 919.89453125 C-82.76418571 921.31944543 -86.0274321 923.00277733 -89.3125 924.6875 C-96.57992217 928.40966645 -104.00647784 931.65426431 -111.55395508 934.76635742 C-117.27494587 937.1529034 -122.62640214 939.91672162 -128 943 C-133.42763717 945.89089628 -138.95552949 948.43145109 -144.625 950.8125 C-150.62741831 953.34670926 -156.43332892 956.16090361 -162.24414062 959.10424805 C-170.01149738 963.03416069 -177.92085172 966.54685204 -185.9375 969.9375 C-192.43195224 972.70771249 -198.71777532 975.78266654 -205 979 C-215.2680836 984.19888044 -225.57744449 989.2574227 -236.16015625 993.7890625 C-236.87059082 994.09457031 -237.58102539 994.40007813 -238.31298828 994.71484375 C-239.68785234 995.3038455 -241.06500641 995.88754221 -242.44482422 996.46484375 C-246.63268434 998.25675956 -250.20246673 1000.45916488 -254 1003 C-256.8125 1003.3125 -256.8125 1003.3125 -259 1003 C-260.77671095 1001.22328905 -260.12652279 998.634604 -260.1276505 996.23025572 C-260.13066647 994.96593655 -260.13368244 993.70161738 -260.1367898 992.39898551 C-260.13509043 990.97479976 -260.13329967 989.55061413 -260.13142776 988.1264286 C-260.13307562 986.62368841 -260.13516106 985.12094864 -260.13764787 983.6182096 C-260.14324732 979.45043259 -260.14253616 975.28267599 -260.14087028 971.1148964 C-260.1401427 966.59517599 -260.14515379 962.0754615 -260.1494453 957.55574358 C-260.1570472 948.57429077 -260.15921946 939.59284391 -260.15977435 930.61138823 C-260.16068583 919.86071328 -260.1673469 909.11004387 -260.17412117 898.35937129 C-260.19020532 872.37162732 -260.196087 846.38388391 -260.20086992 820.39613585 C-260.20320326 808.11097256 -260.2068056 795.82580974 -260.2105653 783.54064681 C-260.22340237 741.51673072 -260.23412188 699.49281488 -260.2375679 657.46889687 C-260.23778954 654.82932544 -260.23801132 652.18975402 -260.23823325 649.5501826 C-260.2384539 646.90410715 -260.23867438 644.25803169 -260.2388947 641.61195624 C-260.23933726 636.30315312 -260.23978438 630.99435 -260.24023438 625.68554688 C-260.24034377 624.36926563 -260.24045316 623.05298438 -260.24056586 621.69681582 C-260.24419834 578.99436568 -260.2601248 536.2919344 -260.28342474 493.58949064 C-260.30799346 448.47953571 -260.32173935 403.36959047 -260.32293582 358.25962865 C-260.32310728 353.31243284 -260.32332272 348.36523704 -260.32357025 343.41804123 C-260.32362602 342.19983443 -260.32368179 340.98162762 -260.32373925 339.72650546 C-260.32489223 320.08070094 -260.33593507 300.43491376 -260.35045731 280.7891151 C-260.36478864 261.0612055 -260.36807839 241.33331824 -260.36001733 221.60540487 C-260.35554525 209.87053528 -260.35948437 198.13573755 -260.37525584 186.40087733 C-260.38495402 178.57495025 -260.38387739 170.7490739 -260.37381961 162.92314736 C-260.36839001 158.45577216 -260.36783682 153.98853563 -260.38032833 149.52117153 C-260.3915789 145.46402353 -260.38924157 141.40712842 -260.37566125 137.34998964 C-260.37320822 135.88471185 -260.3758774 134.41941514 -260.38405773 132.95415813 C-260.39438155 130.97627691 -260.38465068 128.99832071 -260.37374616 127.02044261 C-260.37399036 125.92178285 -260.37423456 124.82312309 -260.37448616 123.69117061 C-260 121 -260 121 -258.59651391 119.19281413 C-256.74071912 117.80628174 -254.90546368 116.81035016 -252.8125 115.8125 C-249.51753967 114.21847789 -246.22833328 112.618487 -242.9609375 110.96875 C-242.25606201 110.61321045 -241.55118652 110.2576709 -240.82495117 109.89135742 C-239.42363323 109.184056 -238.02273869 108.47591498 -236.62231445 107.7668457 C-233.1282329 106.011857 -229.64617376 104.42058718 -226 103 C-219.05335387 99.89540455 -212.18106053 96.65492688 -205.4140625 93.17578125 C-202.96820922 91.98451614 -200.48583864 90.90759226 -197.98144531 89.84594727 C-184.1091017 83.92336587 -170.55406241 77.42121238 -157.140625 70.53125 C-153.34815252 68.59968017 -149.5901962 66.80321755 -145.609375 65.29296875 C-138.77421006 62.58688372 -132.21730353 59.30329004 -125.625 56.0625 C-117.70512109 52.16945141 -109.78198534 48.43946292 -101.60449219 45.10620117 C-98.18948549 43.65575166 -95.04311904 41.95050806 -91.8125 40.125 C-85.62782907 36.70603813 -79.30169414 33.91721856 -72.72192383 31.34619141 C-68.90934404 29.84668304 -65.45709467 28.19450357 -62 26 C-57.57199561 23.59597367 -53.13406266 21.68141431 -48.390625 19.97265625 C-45.22137553 18.68320671 -42.17831342 17.16368405 -39.125 15.625 C-38.21899048 15.16891357 -38.21899048 15.16891357 -37.29467773 14.70361328 C-34.53285105 13.30541761 -31.78469146 11.88564407 -29.05078125 10.43359375 C-28.18839844 9.98113281 -27.32601562 9.52867188 -26.4375 9.0625 C-25.69371094 8.66160156 -24.94992187 8.26070312 -24.18359375 7.84765625 C-21.6601998 6.86809187 -19.68399405 6.84433778 -17 7 C-17 6.34 -17 5.68 -17 5 C-11.81125886 1.27059231 -6.27345457 -1.56836364 0 0 Z " fill="#FEFEFE" transform="translate(1005,55)"/>
<path d="M0 0 C1.77590883 1.77590883 1.12586132 4.35982117 1.12649983 6.76333225 C1.12925958 8.026218 1.13201932 9.28910376 1.13486269 10.59025878 C1.13287434 12.01282399 1.13079485 13.43538907 1.12863445 14.85795403 C1.12997927 16.35898871 1.1317621 17.86002305 1.13394669 19.36105675 C1.13870957 23.52409948 1.13716449 27.68712054 1.13466892 31.85016439 C1.13304497 36.36475109 1.137169 40.87933296 1.14057809 45.39391816 C1.14574835 53.31901139 1.14714649 61.24409851 1.14612198 69.16919327 C1.14460222 80.95381473 1.14874729 92.73842939 1.1539966 104.52304953 C1.16368785 126.79089051 1.1664815 149.0587292 1.16705366 171.32657205 C1.16751248 188.51712433 1.16956705 205.7076757 1.17275429 222.89822769 C1.17365178 227.83917781 1.17454159 232.78012792 1.17542917 237.72107804 C1.17576074 239.56336537 1.17576074 239.56336537 1.17609901 241.44287062 C1.18225668 276.00856423 1.18619922 310.57425752 1.18575573 345.13995171 C1.18574015 346.44422706 1.18572457 347.74850242 1.18570852 349.09230127 C1.18562541 355.70352992 1.18552637 362.31475858 1.18542381 368.92598723 C1.1853939 370.89565369 1.1853939 370.89565369 1.18536337 372.90511139 C1.18532294 375.56054368 1.18528114 378.21597597 1.18523798 380.87140826 C1.18462504 422.19829333 1.19213387 463.52516795 1.20581055 504.85205078 C1.22115494 551.23783618 1.22977776 597.6236162 1.22884732 644.0094043 C1.22877269 648.95098313 1.22872399 653.89256195 1.22869301 658.83414078 C1.22867553 660.65937626 1.22867553 660.65937626 1.22865769 662.52148518 C1.22862686 682.14496904 1.23502602 701.76844581 1.24362527 721.39192756 C1.25208215 741.09743003 1.25310718 760.80292207 1.24651595 780.50842534 C1.24280712 792.22994877 1.24469216 803.95144063 1.25445829 815.67296075 C1.26042351 823.48999291 1.2592017 831.30700202 1.25198779 839.12403309 C1.24807679 843.58630502 1.24741441 848.04851551 1.25544515 852.5107833 C1.26267503 856.56327823 1.26084599 860.61566003 1.25152128 864.66814976 C1.24978757 866.13175992 1.25146815 867.59537873 1.25682249 869.05898013 C1.26357093 871.03463319 1.25695045 873.01031871 1.24954766 874.98596942 C1.24963588 876.08338134 1.2497241 877.18079325 1.249815 878.31146007 C1 881 1 881 -1 884 C-2.96777344 885.11914062 -2.96777344 885.11914062 -5.359375 886.15625 C-6.22820312 886.53910156 -7.09703125 886.92195312 -7.9921875 887.31640625 C-8.90226563 887.70699219 -9.81234375 888.09757813 -10.75 888.5 C-12.53692925 889.28017228 -14.32339911 890.06139773 -16.109375 890.84375 C-17.38506348 891.4003833 -17.38506348 891.4003833 -18.68652344 891.96826172 C-21.50395408 893.22474778 -24.25052037 894.60182712 -27 896 C-29.07979198 896.96599475 -31.1632456 897.92413901 -33.25 898.875 C-38.08302806 901.09334887 -42.85676485 903.39278899 -47.5859375 905.82421875 C-49.47794047 906.74572829 -51.4054637 907.59436666 -53.34375 908.4140625 C-55.8256791 909.49062576 -58.18248146 910.57655573 -60.5703125 911.82421875 C-61.45009766 912.28344727 -61.45009766 912.28344727 -62.34765625 912.75195312 C-63.54351459 913.38142142 -64.73619441 914.01696163 -65.92578125 914.65820312 C-69.44015176 916.47745232 -72.0332428 917.39667572 -76 917 C-76 917.66 -76 918.32 -76 919 C-76.96655518 919.46055786 -76.96655518 919.46055786 -77.95263672 919.93041992 C-80.92722238 921.34847441 -83.90111367 922.76797951 -86.875 924.1875 C-87.88820312 924.67025391 -88.90140625 925.15300781 -89.9453125 925.65039062 C-94.7942091 927.96604958 -99.62767928 930.30328757 -104.42578125 932.72265625 C-107.67892966 934.35736984 -110.92563955 935.90664023 -114.3125 937.25 C-115.09238281 937.56453125 -115.87226563 937.8790625 -116.67578125 938.203125 C-119.09977559 939.03420877 -121.47912102 939.55382673 -124 940 C-124 940.66 -124 941.32 -124 942 C-124.64066406 942.24234375 -125.28132812 942.4846875 -125.94140625 942.734375 C-131.88096041 945.03128055 -131.88096041 945.03128055 -137.5 948 C-140.9705081 950.08880698 -144.60823712 951.471925 -148.37890625 952.9296875 C-152.71318328 954.69957112 -156.84000478 956.85961536 -161 959 C-165.41674365 961.23879017 -169.88092386 963.35961841 -174.375 965.4375 C-178.44323475 967.32505001 -182.50076282 969.21901484 -186.5 971.25 C-189.95160914 972.97580457 -193.45390282 974.48024406 -197 976 C-198.27449241 976.63858215 -199.54518297 977.28479363 -200.8125 977.9375 C-203.74052477 979.42680243 -206.68522301 980.69322199 -209.75 981.875 C-214.66582218 983.79465491 -219.31730023 986.11095139 -224.015625 988.5078125 C-226.71254985 989.85627493 -229.42761885 991.09982495 -232.1875 992.3125 C-235.65678737 993.84933344 -239.00356503 995.52346588 -242.328125 997.34765625 C-243.46858276 997.97063599 -243.46858276 997.97063599 -244.63208008 998.60620117 C-246.14830267 999.4406615 -247.65880116 1000.28562333 -249.1628418 1001.1418457 C-249.86062744 1001.5255835 -250.55841309 1001.90932129 -251.27734375 1002.3046875 C-252.20921509 1002.8303833 -252.20921509 1002.8303833 -253.15991211 1003.36669922 C-255.46811668 1004.16111114 -256.69574366 1003.65959536 -259 1003 C-259.08565768 918.85986037 -259.1651605 834.71971549 -259.2117157 750.57954407 C-259.21240598 749.33515999 -259.21309627 748.09077591 -259.21380747 746.80868322 C-259.2287704 719.76787313 -259.24262154 692.72706257 -259.25532665 665.68625132 C-259.26156358 652.42633216 -259.26804632 639.16641312 -259.2746582 625.90649414 C-259.275312 624.58694032 -259.27596579 623.2673865 -259.2766394 621.9078462 C-259.29194388 591.1156401 -259.31149653 560.32344387 -259.34332275 529.53125 C-259.34434949 528.5377493 -259.34434949 528.5377493 -259.34539698 527.52417787 C-259.35714882 516.17927196 -259.36930725 504.83436648 -259.3814861 493.48946102 C-259.42860483 449.51756565 -259.45941693 405.54568851 -259.46957495 361.57376833 C-259.47101582 355.36962676 -259.47264401 349.16548525 -259.47438622 342.96134377 C-259.47472333 341.74022416 -259.47506045 340.51910455 -259.47540778 339.26098132 C-259.481327 319.56768171 -259.50454585 299.87443828 -259.53416017 280.18116162 C-259.56353269 260.40495561 -259.57485594 240.62880556 -259.56750689 220.85257848 C-259.56369063 209.08877764 -259.57396113 197.32518086 -259.60398772 185.56141669 C-259.62265258 177.71618011 -259.62337844 169.87107808 -259.60915907 162.02583243 C-259.60156607 157.54733224 -259.60211199 153.06921957 -259.62441591 148.59075996 C-259.64451963 144.52344163 -259.64197814 140.45681636 -259.62069988 136.38950976 C-259.61710323 134.9205974 -259.62204644 133.45163544 -259.63617622 131.98278664 C-259.65405288 130.000071 -259.63850104 128.01713626 -259.62099248 126.03441733 C-259.62177238 124.93303814 -259.62255229 123.83165896 -259.62335582 122.69690464 C-259 120 -259 120 -256.66113914 118.22807353 C-255.34387527 117.62017713 -255.34387527 117.62017713 -254 117 C-252.41638672 116.16662109 -252.41638672 116.16662109 -250.80078125 115.31640625 C-249.64964844 114.73761719 -248.49851562 114.15882813 -247.3125 113.5625 C-246.17425781 112.98628906 -245.03601563 112.41007812 -243.86328125 111.81640625 C-241.07666777 110.46173635 -238.25504866 109.29361586 -235.3671875 108.171875 C-229.0223033 105.67565527 -222.9365557 102.67697611 -216.8125 99.6875 C-214.39398645 98.51406025 -211.97426302 97.34312309 -209.5546875 96.171875 C-208.40967773 95.61693359 -207.26466797 95.06199219 -206.08496094 94.49023438 C-200.08758207 91.59311499 -194.04887783 88.78776702 -188 86 C-185.94919074 85.0534461 -183.89841249 84.10682501 -181.84765625 83.16015625 C-178.4168283 81.57671624 -174.98589951 79.99349631 -171.5546875 78.41088867 C-163.35891325 74.63009995 -155.17270675 70.83038493 -147 67 C-145.62765268 66.36057296 -144.25525446 65.72125514 -142.8828125 65.08203125 C-135.06087614 61.43001758 -127.30379905 57.67581169 -119.59570312 53.78930664 C-115.08942817 51.52442242 -110.54337417 49.38431883 -105.9375 47.328125 C-102.29118645 45.67952579 -98.67834771 43.96414285 -95.0625 42.25 C-87.71306189 38.7676768 -80.30812153 35.4194801 -72.86352539 32.14550781 C-69.20308028 30.51930458 -65.6450011 28.85574657 -62.18359375 26.8359375 C-59.65674985 25.37873918 -57.43235737 24.28811889 -54.6875 23.375 C-51.02210823 22.29910447 -51.02210823 22.29910447 -49 20 C-47.34741088 19.29916378 -45.67771982 18.63834036 -44 18 C-37.87057336 15.26063633 -31.79098421 12.43045949 -25.8125 9.375 C-21.6930835 7.28174601 -17.49516481 5.5687372 -13.18359375 3.9140625 C-10.83171965 3.00203842 -10.83171965 3.00203842 -8.25 1.25 C-5.35607309 -0.35773717 -3.25827857 -0.29620714 0 0 Z " fill="#FEFEFE" transform="translate(334,37)"/>
<path d="M0 0 C0 291.39 0 582.78 0 883 C-3.96 884.98 -7.92 886.96 -12 889 C-14.22556641 890.12148437 -14.22556641 890.12148437 -16.49609375 891.265625 C-17.15673828 891.59820313 -17.81738281 891.93078125 -18.49804688 892.2734375 C-19.81910603 892.93862338 -21.13938899 893.6053525 -22.45898438 894.2734375 C-25.92385929 896.0144429 -29.38894254 897.59180445 -33 899 C-40.01782094 902.1364049 -46.94005434 905.44141462 -53.796875 908.9140625 C-56.81216554 910.40032273 -59.90770876 911.68291299 -63 913 C-64.33756924 913.6581267 -65.67076585 914.32519722 -67 915 C-76.92307692 920 -76.92307692 920 -82 920 C-82 920.66 -82 921.32 -82 922 C-85.64481949 923.75211712 -89.29103957 925.50130085 -92.9375 927.25 C-93.95908203 927.74113281 -94.98066406 928.23226562 -96.03320312 928.73828125 C-101.33650047 931.27979755 -106.65692656 933.75391732 -112.04077148 936.11962891 C-114.76262243 937.34268118 -117.41092493 938.6947687 -120.0625 940.0625 C-123.29512746 941.69711162 -126.45244867 943.2502338 -129.875 944.4375 C-137.15043399 946.99905905 -143.99628266 950.94314521 -150.84375 954.4609375 C-154.67914813 956.41414951 -158.44752483 958.22773744 -162.5 959.6875 C-166.00086209 960.72499346 -166.00086209 960.72499346 -168 963 C-169.65705816 963.69020322 -171.3255212 964.35320561 -173 965 C-174.90377316 965.94246196 -176.79922021 966.90186782 -178.6875 967.875 C-182.33014053 969.7162375 -185.93402551 971.42867464 -189.75 972.875 C-194.08304536 974.54366882 -198.18539713 976.57101089 -202.3125 978.6875 C-208.60094989 981.90431888 -214.9885431 984.76457459 -221.5 987.5 C-231.67603276 991.7799251 -241.4896241 996.58906143 -251.265625 1001.7109375 C-254.13776031 1003.06494415 -255.86910227 1003.35781688 -259 1003 C-260.77668649 1001.22331351 -260.12718374 998.63463289 -260.12880117 996.23025572 C-260.13207336 994.96593655 -260.13534555 993.70161738 -260.13871691 992.39898551 C-260.13730652 990.97479978 -260.13580448 989.55061415 -260.13422108 988.1264286 C-260.13617197 986.62368832 -260.13856003 985.12094856 -260.14134905 983.6182096 C-260.14778506 979.45043348 -260.14790782 975.28267655 -260.14707164 971.1148964 C-260.14724043 966.5951753 -260.15313857 962.07546122 -260.1583125 957.55574358 C-260.16766355 948.57429157 -260.17156474 939.59284449 -260.17383147 930.61138823 C-260.176787 919.86071257 -260.1854805 909.1100435 -260.19424575 898.35937129 C-260.21511668 872.37162867 -260.22556366 846.3838849 -260.23437535 820.39613585 C-260.23857764 808.11097254 -260.24380015 795.82580972 -260.24905988 783.54064681 C-260.26695137 741.51673129 -260.28194947 699.49281563 -260.28938007 657.46889687 C-260.28985484 654.82932544 -260.29033072 652.18975402 -260.29080774 649.5501826 C-260.29104411 648.24114712 -260.29128049 646.93211163 -260.29152403 645.58340841 C-260.29272527 638.95078789 -260.2939407 632.31816738 -260.29516602 625.68554688 C-260.29540617 624.36926563 -260.29564632 623.05298438 -260.29589374 621.69681582 C-260.30379133 578.99435988 -260.32723199 536.29193464 -260.35972196 493.58949064 C-260.39398125 448.47953564 -260.41372755 403.36959688 -260.41702431 358.25962865 C-260.41744188 353.31243284 -260.41792145 348.36523703 -260.41844749 343.41804123 C-260.41857069 342.19983443 -260.41869388 340.98162762 -260.4188208 339.72650546 C-260.4211576 320.08069416 -260.43684411 300.43491494 -260.45728934 280.7891151 C-260.47749513 261.06120158 -260.48304959 241.33332682 -260.47351871 221.60540487 C-260.46828337 209.87051339 -260.47427656 198.13575044 -260.49605338 186.40087733 C-260.50948455 178.57493784 -260.50855309 170.74908758 -260.49565142 162.92314736 C-260.4887032 158.45573263 -260.48825914 153.98856496 -260.50521151 149.52117153 C-260.52048296 145.46395674 -260.51763729 141.40719027 -260.49980123 137.34998964 C-260.49662887 135.88471089 -260.50028671 134.41939897 -260.51129298 132.95415813 C-260.52519214 130.97629679 -260.51235079 128.99830032 -260.49794465 127.02044261 C-260.49834484 125.92178285 -260.49874502 124.82312309 -260.49915733 123.69117061 C-260 121 -260 121 -258.10803862 119.2016032 C-252.68088143 116.10806906 -247.13711451 113.39066808 -241.3125 111.125 C-231.70415665 107.3775962 -222.454461 102.76162684 -213.25 98.125 C-200.51538935 91.71085329 -187.62146021 85.67668696 -174.56347656 79.95141602 C-168.91262283 77.4541953 -163.40064207 74.73492883 -157.89770508 71.92944336 C-152.68549056 69.29197617 -147.37952545 66.94611673 -142.01049805 64.64868164 C-136.44890397 62.24740969 -131.04781218 59.57906933 -125.64624023 56.83984375 C-121.13025029 54.55264697 -116.57414824 52.40042339 -111.953125 50.33203125 C-101.70221535 45.70827438 -91.58934978 40.8221866 -81.56152344 35.73486328 C-77.03863707 33.46201595 -72.47015332 31.45883838 -67.72265625 29.69140625 C-66.00001744 29.1309646 -66.00001744 29.1309646 -65 28 C-63.33382885 27.95936168 -61.66611905 27.957279 -60 28 C-60 27.34 -60 26.68 -60 26 C-58.35 25.67 -56.7 25.34 -55 25 C-55 24.34 -55 23.68 -55 23 C-54.29230469 22.72929688 -53.58460938 22.45859375 -52.85546875 22.1796875 C-49.91839241 20.96628524 -47.13686077 19.58054507 -44.3125 18.125 C-40.66985947 16.2837625 -37.06597449 14.57132536 -33.25 13.125 C-28.58892139 11.32877946 -24.15050442 9.17102258 -19.6875 6.9375 C-19.00526367 6.5967041 -18.32302734 6.2559082 -17.62011719 5.90478516 C-14.77217214 4.46538801 -12.09320012 3.06399455 -9.45703125 1.25390625 C-7 0 -7 0 0 0 Z " fill="#FEFEFE" transform="translate(670,34)"/>
</svg>
